<mxfile host="app.diagrams.net" modified="2023-05-20T10:16:05.291Z" agent="Mozilla/5.0 (X11; Linux x86_64) AppleWebKit/537.36 (KHTML, like Gecko) Chrome/112.0.0.0 Safari/537.36" etag="s4JxgQ_XiKwB4cSPnQYt" version="21.3.2" type="device" pages="3">
  <diagram name="MAIN" id="lFPuXFi_mvT8i3Ce_Zs6">
    <mxGraphModel dx="1434" dy="779" grid="1" gridSize="10" guides="1" tooltips="1" connect="1" arrows="1" fold="1" page="1" pageScale="1" pageWidth="850" pageHeight="1100" math="0" shadow="0">
      <root>
        <mxCell id="0" />
        <mxCell id="1" parent="0" />
        <mxCell id="kir9M6J1HskR9p3frYK9-1" value="" style="whiteSpace=wrap;html=1;aspect=fixed;fillColor=#fff2cc;strokeColor=#d6b656;" vertex="1" parent="1">
          <mxGeometry x="55" y="10" width="1060" height="1060" as="geometry" />
        </mxCell>
        <mxCell id="kir9M6J1HskR9p3frYK9-2" value="" style="rounded=0;whiteSpace=wrap;html=1;fillColor=#d5e8d4;strokeColor=#82b366;" vertex="1" parent="1">
          <mxGeometry x="60" y="20" width="1050" height="60" as="geometry" />
        </mxCell>
        <mxCell id="kir9M6J1HskR9p3frYK9-3" value="&lt;font style=&quot;font-size: 18px;&quot;&gt;Home&lt;/font&gt;" style="rounded=0;whiteSpace=wrap;html=1;" vertex="1" parent="1">
          <mxGeometry x="70" y="25" width="60" height="45" as="geometry" />
        </mxCell>
        <mxCell id="kir9M6J1HskR9p3frYK9-4" value="&lt;span style=&quot;font-size: 18px;&quot;&gt;Clieants&lt;/span&gt;" style="rounded=0;whiteSpace=wrap;html=1;" vertex="1" parent="1">
          <mxGeometry x="150" y="25" width="70" height="50" as="geometry" />
        </mxCell>
        <mxCell id="kir9M6J1HskR9p3frYK9-6" value="Profile" style="ellipse;whiteSpace=wrap;html=1;aspect=fixed;" vertex="1" parent="1">
          <mxGeometry x="1060" y="22.5" width="50" height="50" as="geometry" />
        </mxCell>
        <mxCell id="kir9M6J1HskR9p3frYK9-8" value="&lt;font style=&quot;font-size: 18px;&quot;&gt;CLIENTS LIST&lt;/font&gt;" style="rounded=0;whiteSpace=wrap;html=1;" vertex="1" parent="1">
          <mxGeometry x="70" y="90" width="1010" height="70" as="geometry" />
        </mxCell>
        <mxCell id="kir9M6J1HskR9p3frYK9-10" value="&lt;font style=&quot;font-size: 18px;&quot;&gt;PROJECT LIST&lt;/font&gt;" style="rounded=0;whiteSpace=wrap;html=1;" vertex="1" parent="1">
          <mxGeometry x="70" y="180" width="1010" height="70" as="geometry" />
        </mxCell>
        <mxCell id="-AA7lGtDuVPrnu6pB2wc-1" value="SEARCH SPIDER" style="rounded=1;whiteSpace=wrap;html=1;" vertex="1" parent="1">
          <mxGeometry x="750" y="32.5" width="290" height="30" as="geometry" />
        </mxCell>
        <mxCell id="1McMLziAYPW3SfQ99l26-1" value="" style="rounded=0;whiteSpace=wrap;html=1;" vertex="1" parent="1">
          <mxGeometry x="70" y="310" width="1010" height="200" as="geometry" />
        </mxCell>
        <mxCell id="1McMLziAYPW3SfQ99l26-2" value="&lt;span style=&quot;font-size: 18px;&quot;&gt;ACTIVE JOBS&lt;/span&gt;" style="rounded=0;whiteSpace=wrap;html=1;fillColor=#f8cecc;strokeColor=#b85450;" vertex="1" parent="1">
          <mxGeometry x="77.5" y="320" width="167.5" height="50" as="geometry" />
        </mxCell>
        <mxCell id="1McMLziAYPW3SfQ99l26-3" value="" style="rounded=1;whiteSpace=wrap;html=1;fillColor=#e3c800;fontColor=#000000;strokeColor=#B09500;" vertex="1" parent="1">
          <mxGeometry x="86.25" y="380" width="967.5" height="60" as="geometry" />
        </mxCell>
        <mxCell id="1McMLziAYPW3SfQ99l26-4" value="COUNT" style="rounded=0;whiteSpace=wrap;html=1;fillColor=#f8cecc;strokeColor=#b85450;" vertex="1" parent="1">
          <mxGeometry x="267.5" y="330" width="47.5" height="30" as="geometry" />
        </mxCell>
        <mxCell id="1McMLziAYPW3SfQ99l26-5" value="CLIENTNAME" style="rounded=1;whiteSpace=wrap;html=1;" vertex="1" parent="1">
          <mxGeometry x="110" y="395" width="120" height="30" as="geometry" />
        </mxCell>
        <mxCell id="1McMLziAYPW3SfQ99l26-6" value="SPIDERNAME" style="rounded=1;whiteSpace=wrap;html=1;" vertex="1" parent="1">
          <mxGeometry x="245" y="395" width="120" height="30" as="geometry" />
        </mxCell>
        <mxCell id="1McMLziAYPW3SfQ99l26-7" value="START TIME" style="rounded=1;whiteSpace=wrap;html=1;" vertex="1" parent="1">
          <mxGeometry x="385" y="395" width="120" height="30" as="geometry" />
        </mxCell>
        <mxCell id="1McMLziAYPW3SfQ99l26-8" value="TOTAL TIME" style="rounded=1;whiteSpace=wrap;html=1;" vertex="1" parent="1">
          <mxGeometry x="925" y="390" width="120" height="30" as="geometry" />
        </mxCell>
      </root>
    </mxGraphModel>
  </diagram>
  <diagram id="b3BLQ6yP1oQ-KEEB3G5R" name="client">
    <mxGraphModel dx="1434" dy="779" grid="1" gridSize="10" guides="1" tooltips="1" connect="1" arrows="1" fold="1" page="1" pageScale="1" pageWidth="850" pageHeight="1100" math="0" shadow="0">
      <root>
        <mxCell id="0" />
        <mxCell id="1" parent="0" />
        <mxCell id="NRj_G773QIPR92E6KfCl-1" value="" style="whiteSpace=wrap;html=1;aspect=fixed;fillColor=#fff2cc;strokeColor=#d6b656;" vertex="1" parent="1">
          <mxGeometry x="40" y="10" width="1060" height="1060" as="geometry" />
        </mxCell>
        <mxCell id="UO7akWpJQAGRkt9BFN4Y-1" value="" style="rounded=0;whiteSpace=wrap;html=1;fillColor=#d5e8d4;strokeColor=#82b366;" vertex="1" parent="1">
          <mxGeometry x="45" y="10" width="1050" height="60" as="geometry" />
        </mxCell>
        <mxCell id="UO7akWpJQAGRkt9BFN4Y-2" value="&lt;font style=&quot;font-size: 18px;&quot;&gt;Home&lt;/font&gt;" style="rounded=0;whiteSpace=wrap;html=1;" vertex="1" parent="1">
          <mxGeometry x="55" y="15" width="60" height="45" as="geometry" />
        </mxCell>
        <mxCell id="UO7akWpJQAGRkt9BFN4Y-3" value="&lt;span style=&quot;font-size: 18px;&quot;&gt;Clieants&lt;/span&gt;" style="rounded=0;whiteSpace=wrap;html=1;" vertex="1" parent="1">
          <mxGeometry x="135" y="15" width="70" height="50" as="geometry" />
        </mxCell>
        <mxCell id="UO7akWpJQAGRkt9BFN4Y-4" value="Profile" style="ellipse;whiteSpace=wrap;html=1;aspect=fixed;" vertex="1" parent="1">
          <mxGeometry x="1040" y="12.5" width="50" height="50" as="geometry" />
        </mxCell>
        <mxCell id="0RVb_PuEq0YszDrYKdQQ-2" value="" style="rounded=0;whiteSpace=wrap;html=1;" vertex="1" parent="1">
          <mxGeometry x="60" y="90" width="1010" height="220" as="geometry" />
        </mxCell>
        <mxCell id="0RVb_PuEq0YszDrYKdQQ-3" value="&lt;font style=&quot;font-size: 18px;&quot;&gt;CLIENT Name&lt;/font&gt;" style="rounded=0;whiteSpace=wrap;html=1;fillColor=#f8cecc;strokeColor=#b85450;" vertex="1" parent="1">
          <mxGeometry x="70" y="100" width="170" height="70" as="geometry" />
        </mxCell>
        <mxCell id="0RVb_PuEq0YszDrYKdQQ-4" value="&lt;ul style=&quot;&quot;&gt;&lt;li style=&quot;font-size: 21px;&quot;&gt;Spiders: {spider_count}&lt;/li&gt;&lt;ul style=&quot;font-size: 21px;&quot;&gt;&lt;li&gt;Active: {active spider count}&lt;/li&gt;&lt;/ul&gt;&lt;/ul&gt;&lt;h1&gt;&lt;ul style=&quot;&quot;&gt;&lt;li style=&quot;&quot;&gt;&lt;span style=&quot;font-size: 21px;&quot;&gt;Shedules: {Shedule count}&lt;/span&gt;&lt;/li&gt;&lt;/ul&gt;&lt;/h1&gt;&lt;ul style=&quot;&quot;&gt;&lt;ul&gt;&lt;li style=&quot;&quot;&gt;&lt;span style=&quot;font-size: 21px;&quot;&gt;Actives: {active count}&lt;/span&gt;&lt;/li&gt;&lt;li style=&quot;&quot;&gt;&lt;span style=&quot;font-size: 21px;&quot;&gt;Stopped: {stopped count}&lt;/span&gt;&lt;/li&gt;&lt;/ul&gt;&lt;/ul&gt;" style="rounded=0;whiteSpace=wrap;html=1;fillColor=#f8cecc;strokeColor=#b85450;align=left;" vertex="1" parent="1">
          <mxGeometry x="290" y="100" width="710" height="200" as="geometry" />
        </mxCell>
        <mxCell id="0RVb_PuEq0YszDrYKdQQ-5" value="&lt;font style=&quot;font-size: 19px;&quot;&gt;Sheduled Tasks&lt;/font&gt;" style="rounded=0;whiteSpace=wrap;html=1;" vertex="1" parent="1">
          <mxGeometry x="70" y="560" width="170" height="60" as="geometry" />
        </mxCell>
        <mxCell id="0RVb_PuEq0YszDrYKdQQ-6" value="" style="rounded=0;whiteSpace=wrap;html=1;" vertex="1" parent="1">
          <mxGeometry x="95" y="640" width="975" height="410" as="geometry" />
        </mxCell>
        <mxCell id="0RVb_PuEq0YszDrYKdQQ-7" value="&lt;b&gt;&lt;font style=&quot;font-size: 18px;&quot;&gt;+&lt;/font&gt;&lt;/b&gt;" style="ellipse;whiteSpace=wrap;html=1;aspect=fixed;" vertex="1" parent="1">
          <mxGeometry x="250" y="575" width="30" height="30" as="geometry" />
        </mxCell>
        <mxCell id="0RVb_PuEq0YszDrYKdQQ-8" value="SEARCH SPIDER" style="rounded=1;whiteSpace=wrap;html=1;" vertex="1" parent="1">
          <mxGeometry x="740" y="25" width="290" height="30" as="geometry" />
        </mxCell>
        <mxCell id="39dktaqek08A8IJalyt7-1" value="" style="rounded=0;whiteSpace=wrap;html=1;fillColor=#d5e8d4;strokeColor=#82b366;" vertex="1" parent="1">
          <mxGeometry x="110" y="655" width="940" height="130" as="geometry" />
        </mxCell>
        <mxCell id="39dktaqek08A8IJalyt7-2" value="SPIDERNAME" style="rounded=1;whiteSpace=wrap;html=1;" vertex="1" parent="1">
          <mxGeometry x="120" y="670" width="120" height="30" as="geometry" />
        </mxCell>
        <mxCell id="39dktaqek08A8IJalyt7-3" value="PERIOD" style="rounded=1;whiteSpace=wrap;html=1;" vertex="1" parent="1">
          <mxGeometry x="260" y="670" width="120" height="30" as="geometry" />
        </mxCell>
        <mxCell id="39dktaqek08A8IJalyt7-4" value="" style="ellipse;whiteSpace=wrap;html=1;aspect=fixed;fillColor=#008a00;fontColor=#ffffff;strokeColor=#005700;" vertex="1" parent="1">
          <mxGeometry x="390" y="672.5" width="25" height="25" as="geometry" />
        </mxCell>
        <mxCell id="39dktaqek08A8IJalyt7-6" value="IS ACTIVE" style="text;html=1;strokeColor=none;fillColor=none;align=center;verticalAlign=middle;whiteSpace=wrap;rounded=0;" vertex="1" parent="1">
          <mxGeometry x="420" y="670" width="60" height="30" as="geometry" />
        </mxCell>
        <mxCell id="39dktaqek08A8IJalyt7-7" value="EDIT" style="rounded=0;whiteSpace=wrap;html=1;fillColor=#0050ef;fontColor=#ffffff;strokeColor=#001DBC;" vertex="1" parent="1">
          <mxGeometry x="125" y="740" width="80" height="30" as="geometry" />
        </mxCell>
        <mxCell id="39dktaqek08A8IJalyt7-8" value="DELETE" style="rounded=0;whiteSpace=wrap;html=1;fillColor=#e51400;fontColor=#ffffff;strokeColor=#B20000;" vertex="1" parent="1">
          <mxGeometry x="230" y="740" width="80" height="30" as="geometry" />
        </mxCell>
        <mxCell id="39dktaqek08A8IJalyt7-9" value="" style="rounded=0;whiteSpace=wrap;html=1;fillColor=#d5e8d4;strokeColor=#82b366;" vertex="1" parent="1">
          <mxGeometry x="115" y="875" width="940" height="130" as="geometry" />
        </mxCell>
        <mxCell id="39dktaqek08A8IJalyt7-10" value="SPIDERNAME" style="rounded=1;whiteSpace=wrap;html=1;" vertex="1" parent="1">
          <mxGeometry x="122.5" y="905" width="120" height="30" as="geometry" />
        </mxCell>
        <mxCell id="39dktaqek08A8IJalyt7-11" value="PERIOD" style="rounded=1;whiteSpace=wrap;html=1;" vertex="1" parent="1">
          <mxGeometry x="262.5" y="905" width="120" height="30" as="geometry" />
        </mxCell>
        <mxCell id="39dktaqek08A8IJalyt7-12" value="" style="ellipse;whiteSpace=wrap;html=1;aspect=fixed;fillColor=#e51400;fontColor=#ffffff;strokeColor=#B20000;" vertex="1" parent="1">
          <mxGeometry x="392.5" y="907.5" width="25" height="25" as="geometry" />
        </mxCell>
        <mxCell id="39dktaqek08A8IJalyt7-13" value="IS ACTIVE" style="text;html=1;strokeColor=none;fillColor=none;align=center;verticalAlign=middle;whiteSpace=wrap;rounded=0;" vertex="1" parent="1">
          <mxGeometry x="422.5" y="905" width="60" height="30" as="geometry" />
        </mxCell>
        <mxCell id="39dktaqek08A8IJalyt7-14" value="EDIT" style="rounded=0;whiteSpace=wrap;html=1;fillColor=#0050ef;fontColor=#ffffff;strokeColor=#001DBC;" vertex="1" parent="1">
          <mxGeometry x="130" y="960" width="80" height="30" as="geometry" />
        </mxCell>
        <mxCell id="39dktaqek08A8IJalyt7-15" value="DELETE" style="rounded=0;whiteSpace=wrap;html=1;fillColor=#e51400;fontColor=#ffffff;strokeColor=#B20000;" vertex="1" parent="1">
          <mxGeometry x="230" y="960" width="80" height="30" as="geometry" />
        </mxCell>
        <mxCell id="39dktaqek08A8IJalyt7-17" value="&lt;b&gt;&lt;font style=&quot;font-size: 25px;&quot;&gt;.................................&lt;/font&gt;&lt;/b&gt;" style="text;html=1;strokeColor=none;fillColor=none;align=center;verticalAlign=middle;whiteSpace=wrap;rounded=0;" vertex="1" parent="1">
          <mxGeometry x="140" y="800" width="780" height="40" as="geometry" />
        </mxCell>
        <mxCell id="9OzyHIAe9Z1fGLMhJb8M-1" value="" style="rounded=0;whiteSpace=wrap;html=1;" vertex="1" parent="1">
          <mxGeometry x="65" y="320" width="1010" height="200" as="geometry" />
        </mxCell>
        <mxCell id="9OzyHIAe9Z1fGLMhJb8M-2" value="&lt;span style=&quot;font-size: 18px;&quot;&gt;ACTIVE JOBS&lt;/span&gt;" style="rounded=0;whiteSpace=wrap;html=1;fillColor=#f8cecc;strokeColor=#b85450;" vertex="1" parent="1">
          <mxGeometry x="72.5" y="330" width="167.5" height="50" as="geometry" />
        </mxCell>
        <mxCell id="9OzyHIAe9Z1fGLMhJb8M-3" value="" style="rounded=1;whiteSpace=wrap;html=1;fillColor=#e3c800;fontColor=#000000;strokeColor=#B09500;" vertex="1" parent="1">
          <mxGeometry x="81.25" y="390" width="967.5" height="60" as="geometry" />
        </mxCell>
        <mxCell id="9OzyHIAe9Z1fGLMhJb8M-6" value="COUNT" style="rounded=0;whiteSpace=wrap;html=1;fillColor=#f8cecc;strokeColor=#b85450;" vertex="1" parent="1">
          <mxGeometry x="262.5" y="340" width="47.5" height="30" as="geometry" />
        </mxCell>
        <mxCell id="We5f-SAydFnPi5lfvk2D-1" value="CLIENTNAME" style="rounded=1;whiteSpace=wrap;html=1;" vertex="1" parent="1">
          <mxGeometry x="105" y="405" width="120" height="30" as="geometry" />
        </mxCell>
        <mxCell id="We5f-SAydFnPi5lfvk2D-2" value="SPIDERNAME" style="rounded=1;whiteSpace=wrap;html=1;" vertex="1" parent="1">
          <mxGeometry x="240" y="405" width="120" height="30" as="geometry" />
        </mxCell>
        <mxCell id="We5f-SAydFnPi5lfvk2D-3" value="START TIME" style="rounded=1;whiteSpace=wrap;html=1;" vertex="1" parent="1">
          <mxGeometry x="380" y="405" width="120" height="30" as="geometry" />
        </mxCell>
        <mxCell id="We5f-SAydFnPi5lfvk2D-4" value="TOTAL TIME" style="rounded=1;whiteSpace=wrap;html=1;" vertex="1" parent="1">
          <mxGeometry x="920" y="400" width="120" height="30" as="geometry" />
        </mxCell>
      </root>
    </mxGraphModel>
  </diagram>
  <diagram id="oh-OlnUH6KKKbubSRGid" name="JOB MAIN">
    <mxGraphModel dx="1434" dy="779" grid="1" gridSize="10" guides="1" tooltips="1" connect="1" arrows="1" fold="1" page="1" pageScale="1" pageWidth="850" pageHeight="1100" math="0" shadow="0">
      <root>
        <mxCell id="0" />
        <mxCell id="1" parent="0" />
        <mxCell id="V_1tIuN60uJzoUqPZGDw-1" value="" style="whiteSpace=wrap;html=1;aspect=fixed;fillColor=#fff2cc;strokeColor=#d6b656;" vertex="1" parent="1">
          <mxGeometry x="55" y="10" width="1060" height="1060" as="geometry" />
        </mxCell>
        <mxCell id="V_1tIuN60uJzoUqPZGDw-2" value="" style="rounded=0;whiteSpace=wrap;html=1;fillColor=#d5e8d4;strokeColor=#82b366;" vertex="1" parent="1">
          <mxGeometry x="60" y="20" width="1050" height="60" as="geometry" />
        </mxCell>
        <mxCell id="V_1tIuN60uJzoUqPZGDw-3" value="&lt;font style=&quot;font-size: 18px;&quot;&gt;Home&lt;/font&gt;" style="rounded=0;whiteSpace=wrap;html=1;" vertex="1" parent="1">
          <mxGeometry x="70" y="25" width="60" height="45" as="geometry" />
        </mxCell>
        <mxCell id="V_1tIuN60uJzoUqPZGDw-4" value="&lt;span style=&quot;font-size: 18px;&quot;&gt;Clieants&lt;/span&gt;" style="rounded=0;whiteSpace=wrap;html=1;" vertex="1" parent="1">
          <mxGeometry x="150" y="25" width="70" height="50" as="geometry" />
        </mxCell>
        <mxCell id="V_1tIuN60uJzoUqPZGDw-5" value="Profile" style="ellipse;whiteSpace=wrap;html=1;aspect=fixed;" vertex="1" parent="1">
          <mxGeometry x="1050" y="22.5" width="50" height="50" as="geometry" />
        </mxCell>
        <mxCell id="V_1tIuN60uJzoUqPZGDw-8" value="SEARCH SPIDER" style="rounded=1;whiteSpace=wrap;html=1;" vertex="1" parent="1">
          <mxGeometry x="750" y="32.5" width="290" height="30" as="geometry" />
        </mxCell>
        <mxCell id="V_1tIuN60uJzoUqPZGDw-19" value="" style="rounded=0;whiteSpace=wrap;html=1;" vertex="1" parent="1">
          <mxGeometry x="70" y="100" width="1030" height="810" as="geometry" />
        </mxCell>
        <mxCell id="V_1tIuN60uJzoUqPZGDw-20" value="&lt;font style=&quot;font-size: 19px;&quot;&gt;CLIENT&lt;/font&gt;" style="rounded=1;whiteSpace=wrap;html=1;fillColor=#dae8fc;strokeColor=#6c8ebf;" vertex="1" parent="1">
          <mxGeometry x="80" y="110" width="140" height="50" as="geometry" />
        </mxCell>
        <mxCell id="V_1tIuN60uJzoUqPZGDw-21" value="&lt;font style=&quot;font-size: 19px;&quot;&gt;SPIDER&lt;/font&gt;" style="rounded=1;whiteSpace=wrap;html=1;fillColor=#dae8fc;strokeColor=#6c8ebf;" vertex="1" parent="1">
          <mxGeometry x="240" y="110" width="140" height="50" as="geometry" />
        </mxCell>
        <mxCell id="V_1tIuN60uJzoUqPZGDw-22" value="&lt;span style=&quot;font-size: 19px;&quot;&gt;START TIME&lt;/span&gt;" style="rounded=1;whiteSpace=wrap;html=1;fillColor=#dae8fc;strokeColor=#6c8ebf;" vertex="1" parent="1">
          <mxGeometry x="420" y="110" width="140" height="50" as="geometry" />
        </mxCell>
        <mxCell id="V_1tIuN60uJzoUqPZGDw-23" value="&lt;font style=&quot;font-size: 19px;&quot;&gt;RUNNING...&lt;/font&gt;" style="rounded=1;whiteSpace=wrap;html=1;fillColor=#dae8fc;strokeColor=#6c8ebf;" vertex="1" parent="1">
          <mxGeometry x="950" y="110" width="140" height="50" as="geometry" />
        </mxCell>
        <mxCell id="V_1tIuN60uJzoUqPZGDw-24" value="" style="rounded=1;whiteSpace=wrap;html=1;fillColor=#e1d5e7;strokeColor=#9673a6;" vertex="1" parent="1">
          <mxGeometry x="80" y="190" width="1000" height="600" as="geometry" />
        </mxCell>
        <mxCell id="V_1tIuN60uJzoUqPZGDw-25" value="&lt;h1&gt;FORMATTED LOGS&lt;/h1&gt;" style="text;html=1;strokeColor=none;fillColor=none;spacing=5;spacingTop=-20;whiteSpace=wrap;overflow=hidden;rounded=0;align=center;" vertex="1" parent="1">
          <mxGeometry x="510" y="350" width="190" height="120" as="geometry" />
        </mxCell>
        <mxCell id="V_1tIuN60uJzoUqPZGDw-26" value="&lt;font style=&quot;font-size: 22px;&quot;&gt;STOP&lt;/font&gt;" style="ellipse;whiteSpace=wrap;html=1;fillColor=#f8cecc;strokeColor=#b85450;" vertex="1" parent="1">
          <mxGeometry x="545" y="810" width="115" height="60" as="geometry" />
        </mxCell>
      </root>
    </mxGraphModel>
  </diagram>
</mxfile>
